<svg xmlns="http://www.w3.org/2000/svg" xmlns:xlink="http://www.w3.org/1999/xlink" width="500" zoomAndPan="magnify" viewBox="0 0 375 374.999991" height="500" preserveAspectRatio="xMidYMid meet" version="1.0"><defs><g/></defs><path fill="#00ff2b" d="M 132.472656 359.054688 C 115.324219 357.011719 95.527344 363.742188 79.789062 354.265625 C 64.492188 345.050781 66.042969 323.265625 66.746094 307.898438 C 68.335938 273.195312 76.683594 231.632812 52.757812 202.074219 C 47.082031 195.074219 39.890625 189.382812 31.839844 185.820312 C 37.027344 183.070312 41.8125 179.488281 45.972656 175.355469 C 58.195312 163.222656 64.878906 146.863281 67.515625 130.03125 C 70.484375 111.050781 68.601562 91.921875 67.195312 72.894531 C 66.472656 63.097656 65.890625 53.253906 66.324219 43.433594 C 66.640625 36.332031 67.476562 27.832031 72.4375 22.285156 C 78.195312 15.84375 88 14.21875 96.203125 14.027344 C 107.234375 13.777344 118.125 15.503906 129.148438 14.1875 C 133.484375 13.671875 137.175781 2.941406 131.128906 3.660156 C 113.847656 5.71875 96.074219 -0.0234375 79.554688 7.558594 C 63.671875 14.84375 58.589844 31.960938 57.867188 48.125 C 56.996094 67.84375 60.125 87.449219 60.625 107.128906 C 61.074219 124.492188 59.539062 143.011719 50.492188 158.273438 C 41.773438 172.984375 24.949219 182.964844 7.652344 180.550781 C 3.917969 180.027344 -0.0117188 187.332031 1.8125 190.179688 C 1.910156 191.828125 2.824219 192.992188 4.957031 192.695312 C 20.574219 190.523438 35.855469 199.039062 45.480469 210.917969 C 56.613281 224.671875 60.304688 242.789062 60.90625 260.085938 C 61.582031 279.40625 58.582031 298.609375 58.105469 317.894531 C 57.714844 333.519531 57.976562 352.980469 71.980469 363.121094 C 88.34375 374.96875 109.996094 367.5625 128.425781 369.757812 C 132.945312 370.3125 137.667969 359.679688 132.472656 359.054688 Z M 132.472656 359.054688 " fill-opacity="1" fill-rule="nonzero"/><g fill="#00ff2b" fill-opacity="1"><g transform="translate(90.368642, 286.05116)"><g><path d="M 167.359375 -223.640625 L 167.359375 -78.59375 C 167.359375 -66.726562 165.609375 -55.726562 162.109375 -45.59375 C 158.609375 -35.46875 153.296875 -26.65625 146.171875 -19.15625 C 139.054688 -11.664062 130.132812 -5.84375 119.40625 -1.6875 C 108.6875 2.457031 96.101562 4.53125 81.65625 4.53125 C 68.289062 4.53125 56.351562 2.695312 45.84375 -0.96875 C 35.332031 -4.632812 25.390625 -9.753906 16.015625 -16.328125 L 33.796875 -44.625 C 42.097656 -39.019531 49.78125 -35.164062 56.84375 -33.0625 C 63.90625 -30.96875 71.421875 -29.921875 79.390625 -29.921875 C 92.117188 -29.921875 102.441406 -34.015625 110.359375 -42.203125 C 118.285156 -50.398438 122.25 -62.53125 122.25 -78.59375 L 122.25 -189.84375 L 54.171875 -189.84375 L 54.171875 -223.640625 Z M 167.359375 -223.640625 "/></g></g></g><path fill="#00ff2b" d="M 242.519531 359.054688 C 259.667969 357.011719 279.464844 363.742188 295.203125 354.265625 C 310.5 345.050781 308.949219 323.265625 308.242188 307.898438 C 306.65625 273.195312 298.308594 231.632812 322.234375 202.074219 C 327.910156 195.074219 335.101562 189.382812 343.152344 185.820312 C 337.964844 183.070312 333.179688 179.488281 329.019531 175.355469 C 316.796875 163.222656 310.113281 146.863281 307.476562 130.03125 C 304.507812 111.050781 306.390625 91.921875 307.796875 72.894531 C 308.515625 63.097656 309.101562 53.253906 308.667969 43.433594 C 308.351562 36.332031 307.515625 27.832031 302.554688 22.285156 C 296.796875 15.84375 286.992188 14.21875 278.789062 14.027344 C 267.757812 13.777344 256.867188 15.503906 245.84375 14.1875 C 241.507812 13.671875 237.816406 2.941406 243.863281 3.660156 C 261.144531 5.71875 278.917969 -0.0234375 295.4375 7.558594 C 311.320312 14.84375 316.402344 31.960938 317.125 48.125 C 317.996094 67.84375 314.867188 87.449219 314.367188 107.128906 C 313.917969 124.492188 315.453125 143.011719 324.5 158.273438 C 333.21875 172.984375 350.042969 182.964844 367.339844 180.550781 C 371.074219 180.027344 375.003906 187.332031 373.179688 190.179688 C 373.082031 191.828125 372.167969 192.992188 370.035156 192.695312 C 354.417969 190.523438 339.136719 199.039062 329.511719 210.917969 C 318.375 224.671875 314.683594 242.789062 314.085938 260.085938 C 313.410156 279.40625 316.410156 298.609375 316.886719 317.894531 C 317.273438 333.519531 317.015625 352.980469 303.011719 363.121094 C 286.648438 374.96875 264.992188 367.5625 246.566406 369.757812 C 242.046875 370.3125 237.324219 359.679688 242.519531 359.054688 Z M 242.519531 359.054688 " fill-opacity="1" fill-rule="nonzero"/></svg>