<svg xmlns="http://www.w3.org/2000/svg" xmlns:xlink="http://www.w3.org/1999/xlink" width="500" zoomAndPan="magnify" viewBox="0 0 375 374.999991" height="500" preserveAspectRatio="xMidYMid meet" version="1.0"><defs><g/></defs><path fill="#00ff2b" d="M 122.398438 324.746094 C 108.675781 323.109375 92.839844 328.496094 80.25 320.910156 C 68.011719 313.539062 69.253906 296.113281 69.816406 283.820312 C 71.085938 256.054688 77.765625 222.804688 58.625 199.160156 C 54.085938 193.558594 48.332031 189.007812 41.890625 186.15625 C 46.039062 183.957031 49.867188 181.089844 53.199219 177.785156 C 62.976562 168.078125 68.324219 154.992188 70.429688 141.523438 C 72.808594 126.339844 71.300781 111.039062 70.175781 95.816406 C 69.597656 87.976562 69.128906 80.101562 69.476562 72.246094 C 69.730469 66.5625 70.402344 59.765625 74.367188 55.328125 C 78.972656 50.175781 86.820312 48.875 93.382812 48.722656 C 102.207031 48.523438 110.917969 49.902344 119.734375 48.851562 C 123.207031 48.4375 126.160156 39.851562 121.320312 40.429688 C 107.496094 42.074219 93.277344 37.480469 80.0625 43.546875 C 67.355469 49.375 63.289062 63.070312 62.714844 76 C 62.015625 91.777344 64.519531 107.460938 64.917969 123.203125 C 65.277344 137.09375 64.050781 151.910156 56.8125 164.117188 C 49.835938 175.886719 36.378906 183.871094 22.542969 181.941406 C 19.550781 181.519531 16.410156 187.367188 17.867188 189.644531 C 17.949219 190.964844 18.675781 191.894531 20.382812 191.65625 C 32.878906 189.917969 45.105469 196.730469 52.800781 206.234375 C 61.710938 217.238281 64.664062 231.730469 65.144531 245.566406 C 65.683594 261.027344 63.285156 276.386719 62.902344 291.816406 C 62.59375 304.316406 62.796875 319.882812 74.003906 327.996094 C 87.09375 337.476562 104.417969 331.550781 119.160156 333.308594 C 122.773438 333.75 126.554688 325.242188 122.398438 324.746094 Z M 122.398438 324.746094 " fill-opacity="1" fill-rule="nonzero"/><g fill="#00ff2b" fill-opacity="1"><g transform="translate(127.782123, 220.747261)"><g><path d="M 56.46875 -75.453125 L 56.46875 -26.515625 C 56.46875 -22.515625 55.875 -18.800781 54.6875 -15.375 C 53.507812 -11.957031 51.71875 -8.984375 49.3125 -6.453125 C 46.914062 -3.929688 43.90625 -1.96875 40.28125 -0.5625 C 36.664062 0.832031 32.421875 1.53125 27.546875 1.53125 C 23.035156 1.53125 19.003906 0.910156 15.453125 -0.328125 C 11.910156 -1.566406 8.5625 -3.296875 5.40625 -5.515625 L 11.40625 -15.0625 C 14.207031 -13.164062 16.796875 -11.863281 19.171875 -11.15625 C 21.554688 -10.445312 24.09375 -10.09375 26.78125 -10.09375 C 31.070312 -10.09375 34.554688 -11.472656 37.234375 -14.234375 C 39.910156 -17.003906 41.25 -21.097656 41.25 -26.515625 L 41.25 -64.046875 L 18.28125 -64.046875 L 18.28125 -75.453125 Z M 56.46875 -75.453125 "/></g></g></g><g fill="#00ff2b" fill-opacity="1"><g transform="translate(181.670599, 220.747261)"><g><path d="M 45.984375 -38.140625 C 45.984375 -43.660156 45.472656 -48.128906 44.453125 -51.546875 C 43.441406 -54.972656 42.070312 -57.59375 40.34375 -59.40625 C 38.613281 -61.226562 36.628906 -62.46875 34.390625 -63.125 C 32.160156 -63.78125 29.828125 -64.109375 27.390625 -64.109375 L 21.984375 -64.109375 L 21.984375 -11.296875 L 27.4375 -11.296875 C 29.988281 -11.296875 32.378906 -11.691406 34.609375 -12.484375 C 36.847656 -13.285156 38.820312 -14.664062 40.53125 -16.625 C 42.238281 -18.59375 43.570312 -21.320312 44.53125 -24.8125 C 45.5 -28.3125 45.984375 -32.753906 45.984375 -38.140625 Z M 61.921875 -38.140625 C 61.921875 -30.390625 60.910156 -24.019531 58.890625 -19.03125 C 56.867188 -14.050781 54.148438 -10.175781 50.734375 -7.40625 C 47.316406 -4.644531 43.476562 -2.71875 39.21875 -1.625 C 34.96875 -0.539062 30.601562 0 26.125 0 L 6.765625 0 L 6.765625 -75.453125 L 24.875 -75.453125 C 29.570312 -75.453125 34.128906 -74.957031 38.546875 -73.96875 C 42.960938 -72.988281 46.929688 -71.160156 50.453125 -68.484375 C 53.984375 -65.816406 56.773438 -62.046875 58.828125 -57.171875 C 60.890625 -52.296875 61.921875 -45.953125 61.921875 -38.140625 Z M 61.921875 -38.140625 "/></g></g></g><path fill="#00ff2b" d="M 247.929688 324.746094 C 261.652344 323.109375 277.488281 328.496094 290.078125 320.910156 C 302.316406 313.539062 301.078125 296.113281 300.511719 283.820312 C 299.242188 256.054688 292.5625 222.804688 311.703125 199.160156 C 316.242188 193.558594 322 189.007812 328.4375 186.15625 C 324.289062 183.957031 320.460938 181.089844 317.132812 177.785156 C 307.355469 168.078125 302.007812 154.992188 299.898438 141.523438 C 297.523438 126.339844 299.027344 111.039062 300.152344 95.816406 C 300.730469 87.976562 301.199219 80.101562 300.851562 72.246094 C 300.597656 66.5625 299.929688 59.765625 295.960938 55.328125 C 291.355469 50.175781 283.507812 48.875 276.945312 48.722656 C 268.125 48.523438 259.410156 49.902344 250.59375 48.851562 C 247.121094 48.4375 244.167969 39.851562 249.007812 40.429688 C 262.832031 42.074219 277.050781 37.480469 290.265625 43.546875 C 302.972656 49.375 307.039062 63.070312 307.613281 76 C 308.3125 91.777344 305.808594 107.460938 305.410156 123.203125 C 305.050781 137.09375 306.277344 151.910156 313.515625 164.117188 C 320.492188 175.886719 333.949219 183.871094 347.789062 181.941406 C 350.777344 181.519531 353.917969 187.367188 352.460938 189.644531 C 352.382812 190.964844 351.652344 191.894531 349.945312 191.65625 C 337.449219 189.917969 325.226562 196.730469 317.527344 206.234375 C 308.617188 217.238281 305.664062 231.730469 305.183594 245.566406 C 304.644531 261.027344 307.042969 276.386719 307.425781 291.816406 C 307.738281 304.316406 307.53125 319.882812 296.324219 327.996094 C 283.234375 337.476562 265.910156 331.550781 251.167969 333.308594 C 247.554688 333.75 243.773438 325.242188 247.929688 324.746094 Z M 247.929688 324.746094 " fill-opacity="1" fill-rule="nonzero"/></svg>